Coordinates
version=1
nRows=12
nColumns=33
inDegrees=yes

Units are S.I. units (second, meters, Newtons, ...)
Angles are in degrees.

endheader
time	ground_thorax_rot_x	ground_thorax_rot_y	ground_thorax_rot_z	ground_thorax_tx	ground_thorax_ty	ground_thorax_tz	clav_prot_r	clav_elev_r	scapula_abduction_r	scapula_elevation_r	scapula_upward_rot_r	scapula_winging_r	shoulder_elv_r	plane_of_elev_r	axial_rot_r	elbow_flexion_r	pro_sup_r	wrist_flex_r	wrist_dev_r	clav_prot_l	clav_elev_l	scapula_abduction_l	scapula_elevation_l	scapula_upward_rot_l	scapula_winging_l	shoulder_elv_l	plane_of_elev_l	axial_rot_l	elbow_flexion_l	pro_sup_l	wrist_flex_l	wrist_dev_l
     13.14000000	     41.06504444	     12.04886595	     12.91785784	   -217.25156910	    841.83425851	      2.17434225	     12.77970076	     40.00958599	     39.20498954	     45.00000000	    -29.97892496	  -2970.89955599	  -4252.73079464	     32.99681986	     49.12279845	    731.15405748	   -360.22406317	     18.66227295	      9.37308617	      7.43740295	    -45.00000000	    -36.95122512	     45.00000000	    -41.66441633	    458.44138214	  -6763.58768950	     20.60960717	    -56.25104151	   -709.36405463	   -362.07108673	      7.31354748	    -20.23264206
     13.15000000	     41.05379765	     11.80374828	     12.82203289	   -218.51352544	    842.44696532	      2.12685322	     12.68997125	     39.89550993	     39.30762069	     45.00000000	    -30.16507334	  -2970.94407332	  -4252.77536523	     33.03957899	     49.05169828	    731.13857036	   -360.26882080	     18.74531542	      9.10208559	      7.47038985	    -45.00000000	    -37.08429950	     45.00000000	    -41.45972632	    458.62087934	  -6763.61917447	     20.42577639	    -56.52365160	   -709.40443902	   -361.53176329	      7.07590222	    -20.25207612
     13.16000000	     41.04834422	     11.89332840	     12.79266651	   -219.75965095	    843.02703292	      2.09512680	     12.69562302	     39.89540473	     39.09180305	     45.00000000	    -30.35742156	  -2970.90995051	  -4252.61143019	     33.03825859	     49.05897405	    731.12962752	   -360.23157968	     18.76728836	      9.13518197	      7.49152048	    -45.00000000	    -36.94988405	     45.00000000	    -41.75071860	    458.68520536	  -6763.51415003	     20.51099888	    -56.84886074	   -709.31106011	   -360.96154692	      6.90714903	    -20.29213658
     13.17000000	     41.01006565	     11.70363553	     12.74984335	   -220.98396251	    843.57433521	      2.07979402	     12.65217469	     39.77474928	     39.14738874	     45.00000000	    -30.58969242	  -2970.92576962	  -4252.60526395	     33.10569958	     49.00789278	    731.15267758	   -360.20633244	     18.83205676	      8.92578165	      7.52205830	    -45.00000000	    -37.07735864	     45.00000000	    -41.63009463	    458.89052316	  -6763.50215935	     20.31958608	    -57.04400708	   -709.34473210	   -360.34483054	      6.70239609	    -20.30544717
     13.18000000	     41.03152274	     11.78640007	     12.72655858	   -222.19047603	    844.09291529	      2.08131718	     12.63618342	     39.77541759	     38.95039794	     45.00000000	    -30.79063208	  -2970.90359878	  -4252.46015278	     33.12105168	     49.00242564	    731.14390257	   -360.12695067	     18.86438455	      8.91983436	      7.56637413	    -45.00000000	    -36.87136164	     45.00000000	    -42.17973406	    458.93940997	  -6763.40799333	     20.47111940	    -57.22728823	   -709.25655580	   -359.73054701	      6.48733570	    -20.33476208
     13.19000000	     40.98321796	     11.72541407	     12.73653518	   -223.37754058	    844.58378570	      2.09951833	     12.61205255	     39.62819650	     38.98038368	     45.00000000	    -31.10530847	  -2970.95206983	  -4252.43612540	     33.14326607	     49.00752397	    731.19429228	   -360.04861324	     18.91634013	      8.74103439	      7.59872702	    -45.00000000	    -36.92198600	     45.00000000	    -42.33615320	    459.10136684	  -6763.37587747	     20.39939809	    -57.11669252	   -709.24725838	   -359.09309692	      6.26271743	    -20.34128255
     13.20000000	     40.82067256	     12.33226580	     13.57856270	   -224.53536927	    845.04377123	      2.13382725	     12.81502856	     39.35265796	     38.93306072	     45.00000000	    -32.23004286	  -2970.96404884	  -4252.12746968	     33.10288963	     49.04106927	    731.36161483	   -359.83720995	     18.93955668	      8.76905264	      8.00792894	    -45.00000000	    -36.56201650	     45.00000000	    -45.00000000	    459.22319552	  -6763.15681603	     20.90530710	    -56.19768786	   -709.09158612	   -357.93207529	      5.73698606	    -20.37709904
     13.21000000	     40.81152185	     12.16086144	     13.41329489	   -225.67554679	    845.47794496	      2.18368797	     12.75864838	     39.44440112	     38.76517496	     45.00000000	    -32.12122300	  -2970.87428416	  -4252.04258521	     33.06889067	     48.84836965	    731.38884280	   -359.67485184	     18.97031717	      8.81380426	      7.97083704	    -45.00000000	    -36.46814444	     45.00000000	    -44.71883226	    459.31503603	  -6763.10572433	     20.86483317	    -56.28552765	   -709.08317370	   -356.79730396	      5.70524162	    -20.42135507
     13.22000000	     40.82034377	     12.06949890	     13.31217029	   -226.78986065	    845.88319489	      2.24858637	     12.75706586	     39.35172609	     38.63893423	     45.00000000	    -32.39934314	  -2970.88287833	  -4251.97436740	     33.26513013	     48.83644535	    731.28236224	   -359.48627677	     18.98628530	      8.62322545	      8.02659765	    -45.00000000	    -36.39165360	     45.00000000	    -45.00000000	    459.36580298	  -6763.09329238	     20.95884712	    -56.27684843	   -709.09397000	   -355.63024315	      5.42026621	    -20.40785639
     13.23000000	     40.76188574	     12.10683379	     13.35599707	   -227.87289178	    846.25776609	      2.32773081	     12.72381114	     39.39911920	     38.60029606	     45.00000000	    -32.41018560	  -2970.90484745	  -4251.98232699	     33.05636844	     48.71240942	    731.32972984	   -359.32686937	     19.02335819	      8.55777220	      8.00330975	    -45.00000000	    -36.40590428	     45.00000000	    -45.00000000	    459.46435711	  -6763.03174182	     20.87109115	    -56.45556424	   -709.04822475	   -354.60028896	      5.32218572	    -20.42610748
     13.24000000	     40.72614329	     11.99599058	     13.29315361	   -228.92404611	    846.60248393	      2.42076416	     12.66871258	     39.35634341	     38.56501297	     45.00000000	    -32.59519555	  -2970.92558050	  -4251.96043441	     33.09287083	     48.67889206	    731.42628164	   -359.17552104	     19.08647788	      8.37646696	      8.01021135	    -45.00000000	    -36.38277039	     45.00000000	    -45.00000000	    459.60074358	  -6763.01837475	     20.82881130	    -56.42425713	   -708.92931831	   -353.66340896	      5.11147433	    -20.42777420
     13.25000000	     40.70466582	     11.88074230	     13.19469709	   -229.93741760	    846.91696326	      2.52670522	     12.62493502	     39.25806778	     38.48632376	     45.00000000	    -32.84561632	  -2970.92465552	  -4251.92339057	     33.22363637	     48.70986857	    731.37100604	   -359.00804512	     19.10875021	      8.19330577	      8.01958955	    -45.00000000	    -36.31198013	     45.00000000	    -45.00000000	    459.66529269	  -6763.04904224	     20.86794215	    -56.23818167	   -708.96776867	   -352.79844959	      4.85693793	    -20.38334431
